<?xml version="1.0" standalone="no"?>
<!DOCTYPE svg PUBLIC "-//W3C//DTD SVG 20010904//EN"
 "http://www.w3.org/TR/2001/REC-SVG-20010904/DTD/svg10.dtd">
<svg version="1.0" xmlns="http://www.w3.org/2000/svg"
 width="128px" height="128px" viewBox="0 0 835.000000 831.000000"
 preserveAspectRatio="xMidYMid meet">

<g transform="translate(0.000000,831.000000) scale(0.100000,-0.100000)"
fill="#000000" stroke="none">
<path d="M3980 7900 c-1069 -83 -2071 -630 -2741 -1495 -373 -482 -603 -957
-739 -1530 -153 -638 -104 -1354 137 -2010 70 -192 226 -513 331 -681 234
-376 560 -741 912 -1020 82 -65 98 -76 245 -174 172 -115 438 -256 625 -333
819 -337 1686 -377 2528 -117 726 224 1302 608 1819 1210 286 334 545 795 688
1225 211 639 244 1344 90 1941 -143 551 -369 1022 -698 1454 -446 584 -1041
1028 -1742 1300 -456 176 -1012 264 -1455 230z m435 -221 c612 -52 1145 -239
1672 -585 211 -139 378 -277 573 -473 508 -510 824 -1076 988 -1771 174 -735
61 -1603 -301 -2300 -81 -157 -229 -400 -243 -400 -2 0 -55 15 -117 34 -110
33 -372 86 -427 86 -16 0 -30 7 -34 16 -9 22 -7 427 2 440 4 5 28 18 55 28 67
25 158 96 206 158 159 211 143 476 -41 673 -48 52 -80 75 -146 107 l-85 41 6
167 c7 195 -3 283 -42 365 -75 161 -224 256 -426 271 l-84 7 30 43 c43 62 106
199 124 269 24 89 29 192 16 286 -30 204 -172 527 -372 845 l-61 97 17 71 c42
174 40 395 -5 540 -26 82 -76 131 -147 142 -90 14 -268 -27 -484 -111 l-46
-18 -104 60 c-423 247 -685 321 -927 263 -157 -38 -430 -160 -618 -276 -39
-24 -78 -44 -86 -44 -9 0 -60 18 -114 39 -117 46 -227 77 -306 87 -168 19
-235 -42 -268 -248 -16 -98 -8 -305 15 -420 l18 -86 -65 -104 c-134 -209 -267
-475 -324 -645 -90 -267 -67 -484 73 -711 25 -40 44 -74 42 -76 -2 -1 -44 -7
-94 -13 -163 -20 -276 -82 -355 -194 -74 -105 -83 -144 -89 -393 l-6 -220 -51
-20 c-232 -94 -361 -334 -314 -587 29 -159 164 -317 315 -370 l50 -17 0 -229
0 -228 -130 -22 c-151 -25 -224 -41 -357 -81 l-96 -29 -70 106 c-265 403 -441
870 -512 1352 -127 867 61 1711 542 2433 386 579 898 1028 1501 1316 538 257
1156 376 1702 329z m122 -1793 c166 -35 269 -69 393 -128 275 -132 412 -273
479 -493 28 -90 30 -262 5 -345 -34 -115 -102 -215 -199 -292 -119 -96 -19
-88 -1046 -88 l-905 0 -50 31 c-127 81 -220 195 -265 326 -21 59 -24 86 -23
198 1 107 5 141 22 189 105 287 351 474 759 575 205 52 287 61 508 56 166 -3
221 -8 322 -29z m1568 -1654 c41 -18 83 -59 106 -105 17 -33 19 -56 17 -218
l-3 -181 -55 -21 c-158 -58 -270 -187 -315 -362 -64 -252 88 -525 338 -605
l37 -12 0 -727 0 -727 -48 -36 c-78 -58 -286 -180 -429 -252 -296 -148 -642
-262 -955 -315 -359 -61 -790 -67 -1148 -15 -493 71 -994 257 -1382 513 l-128
84 0 744 c0 701 1 743 18 743 43 0 147 63 211 128 109 109 158 238 149 388 -9
133 -62 248 -161 344 -48 47 -172 120 -203 120 -11 0 -14 37 -14 193 0 190 0
194 26 233 32 50 84 84 143 94 25 4 883 7 1906 6 1484 -1 1866 -4 1890 -14z"/>
<path d="M3445 5541 c-147 -68 -168 -265 -38 -355 103 -71 251 -28 304 89 75
164 -102 342 -266 266z"/>
<path d="M4750 5544 c-65 -28 -111 -89 -125 -165 -15 -78 36 -169 118 -211 82
-41 197 -8 253 74 54 80 51 163 -11 244 -50 65 -157 92 -235 58z"/>
<path d="M3897 5001 c-45 -9 -87 -38 -104 -72 -18 -34 -16 -96 3 -129 35 -59
43 -60 379 -60 332 0 341 1 384 56 27 34 28 98 1 141 -38 62 -55 66 -355 69
-148 1 -287 -1 -308 -5z"/>
<path d="M2715 3936 c-47 -21 -67 -51 -73 -105 -3 -39 0 -57 17 -84 37 -61 47
-62 446 -62 326 0 363 2 392 18 93 50 93 171 1 227 -31 19 -51 20 -393 20
-276 -1 -367 -4 -390 -14z"/>
<path d="M4706 3900 c-123 -38 -139 -216 -26 -275 22 -11 66 -15 175 -15 81 0
145 -4 143 -9 -1 -4 -39 -41 -83 -81 -44 -40 -134 -125 -200 -189 -66 -64
-176 -169 -245 -233 -69 -65 -174 -164 -235 -222 l-110 -105 -5 71 c-4 62 -8
73 -32 91 -33 25 -89 17 -124 -18 -19 -19 -24 -34 -24 -78 0 -73 26 -107 81
-107 21 0 39 -4 39 -9 0 -5 -20 -27 -44 -48 -24 -21 -143 -131 -264 -245 -121
-115 -223 -208 -226 -208 -3 0 -6 16 -6 35 0 77 -63 166 -130 185 -48 13 -604
13 -653 -1 -69 -19 -97 -56 -224 -296 -232 -438 -229 -429 -199 -507 21 -56
30 -63 151 -128 55 -30 235 -127 401 -216 166 -90 317 -165 335 -168 51 -9
111 11 150 49 29 29 192 260 283 402 l29 45 -22 137 c-12 76 -21 143 -21 149
0 10 177 182 400 388 507 471 910 848 1085 1016 l110 105 5 -120 c7 -141 19
-171 82 -205 60 -31 108 -22 160 30 l38 38 0 326 c0 361 -1 370 -63 403 -29
16 -68 18 -367 20 -184 1 -348 -2 -364 -7z m-1458 -1742 c-2 -7 -74 -59 -159
-115 -85 -56 -167 -117 -183 -134 -25 -29 -28 -37 -24 -86 6 -64 41 -108 101
-124 52 -14 82 -3 218 83 62 38 118 72 125 75 11 4 44 -113 44 -159 0 -16
-130 -219 -165 -256 -10 -11 -58 11 -266 123 -140 76 -271 147 -291 159 l-37
22 80 149 c44 83 96 178 115 213 l35 62 205 0 c160 0 205 -3 202 -12z"/>
<path d="M3702 3858 c-7 -7 -12 -24 -12 -38 0 -33 17 -50 51 -50 20 0 30 7 39
30 11 26 10 33 -5 50 -20 22 -55 26 -73 8z"/>
<path d="M4342 3858 c-21 -21 -14 -66 13 -84 30 -19 48 -14 71 20 15 24 15 28
0 51 -18 27 -63 34 -84 13z"/>
<path d="M4045 3443 c-88 -36 -127 -89 -106 -146 12 -31 63 -70 114 -88 52
-18 57 -9 57 134 0 129 2 127 -65 100z"/>
<path d="M4306 3385 c-8 -89 2 -175 21 -182 17 -7 114 40 138 67 55 61 -11
156 -126 183 -26 7 -26 6 -33 -68z"/>
<path d="M2720 3436 c-93 -33 -106 -160 -24 -225 26 -20 37 -21 403 -21 353 0
378 1 407 19 44 27 70 96 55 144 -13 39 -44 71 -84 86 -42 16 -711 13 -757 -3z"/>
<path d="M3706 3371 c-27 -29 -18 -73 18 -86 24 -8 31 -6 47 14 22 27 24 41 7
63 -21 27 -53 30 -72 9z"/>
<path d="M2704 2931 c-45 -27 -64 -59 -64 -106 0 -52 17 -84 59 -112 33 -22
42 -23 240 -23 232 0 252 5 284 73 22 46 21 85 -3 124 -35 58 -57 63 -282 63
-182 0 -206 -2 -234 -19z"/>
<path d="M3412 2927 c-101 -56 -57 -227 58 -227 106 0 156 155 72 221 -28 22
-95 25 -130 6z"/>
<path d="M3711 2874 c-26 -19 -27 -55 -3 -77 24 -22 45 -21 65 1 43 47 -11
111 -62 76z"/>
<path d="M5418 2855 c-57 -32 -66 -108 -19 -156 33 -33 67 -37 111 -14 37 19
50 43 50 93 0 69 -80 112 -142 77z"/>
<path d="M5827 2734 c-32 -17 -47 -50 -47 -100 0 -33 -1 -34 -41 -34 -82 0
-127 -86 -76 -146 19 -22 31 -26 70 -26 l47 1 0 -225 c0 -247 5 -271 58 -293
39 -16 77 -5 107 31 l25 30 0 229 0 229 48 0 c61 0 92 28 92 84 0 54 -35 86
-95 86 l-45 0 0 41 c0 51 -13 75 -50 94 -36 19 -57 18 -93 -1z"/>
<path d="M4829 2617 c-115 -40 -202 -131 -236 -246 -23 -80 -14 -201 20 -267
36 -70 107 -140 175 -172 51 -24 69 -27 167 -27 105 0 114 2 177 33 37 18 78
46 92 63 25 29 26 37 26 145 0 176 -7 183 -177 184 -121 0 -122 0 -143 -27
-28 -36 -21 -89 16 -121 21 -19 36 -23 73 -20 44 3 46 2 49 -25 3 -23 -2 -30
-32 -42 -116 -49 -250 27 -263 150 -7 54 9 98 51 143 59 64 137 78 240 42 52
-18 61 -18 86 -5 32 16 70 61 70 81 0 7 -13 29 -30 47 -70 80 -234 109 -361
64z"/>
<path d="M5399 2579 l-29 -31 0 -290 0 -290 34 -34 c19 -19 44 -34 56 -34 32
0 78 30 89 59 6 14 11 153 13 309 l3 284 -33 29 c-45 41 -94 40 -133 -2z"/>
<path d="M3988 2033 c-24 -27 -30 -60 -17 -85 16 -31 28 -38 66 -38 64 0 97
77 51 120 -27 25 -79 26 -100 3z"/>
<path d="M4342 2033 c-50 -42 -24 -123 38 -123 54 0 81 79 40 120 -25 25 -51
25 -78 3z"/>
<path d="M4778 1660 c-99 -30 -144 -127 -101 -217 51 -108 299 -111 370 -4 51
76 11 174 -89 216 -39 16 -135 19 -180 5z"/>
<path d="M4323 1610 c-41 -25 -53 -48 -53 -104 0 -128 167 -157 217 -38 21 50
2 107 -46 139 -42 28 -76 29 -118 3z"/>
<path d="M5288 1614 c-77 -41 -75 -169 2 -209 37 -19 64 -19 106 1 85 41 85
167 0 208 -42 20 -72 20 -108 0z"/>
<path d="M4012 1554 c-41 -29 -19 -94 33 -94 24 0 55 33 55 57 0 17 -36 53
-53 53 -7 0 -23 -7 -35 -16z"/>
<path d="M5686 1557 c-37 -27 -16 -97 29 -97 50 0 73 66 33 94 -27 19 -39 20
-62 3z"/>
</g>
</svg>
